<?xml version="1.0" standalone="no"?>
<!DOCTYPE svg PUBLIC "-//W3C//DTD SVG 20010904//EN"
 "http://www.w3.org/TR/2001/REC-SVG-20010904/DTD/svg10.dtd">
<svg version="1.0" xmlns="http://www.w3.org/2000/svg"
 width="1989.000000pt" height="1989.000000pt" viewBox="0 0 1989.000000 1989.000000"
 preserveAspectRatio="xMidYMid meet">
<metadata>
Created by potrace 1.11, written by Peter Selinger 2001-2013
</metadata>
<g transform="translate(0.000000,1989.000000) scale(0.100000,-0.100000)"
fill="#000000" stroke="none">
<path d="M4206 19858 c-3 -18 -9 -44 -12 -58 -3 -14 -7 -34 -9 -45 -3 -11 -21
-92 -41 -180 -19 -88 -37 -167 -39 -175 -33 -161 -48 -232 -57 -265 -5 -22
-12 -49 -14 -60 -2 -11 -26 -121 -54 -245 -28 -124 -52 -234 -54 -245 -2 -11
-23 -103 -46 -205 -23 -102 -44 -198 -46 -215 -3 -16 -10 -48 -16 -70 -5 -22
-12 -51 -15 -65 -2 -14 -9 -43 -14 -65 -5 -22 -12 -51 -14 -65 -3 -14 -12 -52
-20 -85 -13 -53 -99 -442 -111 -504 -3 -12 -11 -51 -19 -85 -8 -33 -16 -72
-19 -86 -3 -14 -30 -137 -61 -275 -30 -137 -57 -259 -59 -270 -2 -11 -11 -50
-20 -88 -9 -37 -18 -82 -21 -100 -3 -17 -10 -48 -15 -67 -5 -19 -32 -141 -61
-270 -50 -229 -84 -383 -129 -584 -12 -54 -23 -106 -25 -115 -6 -30 -76 -346
-90 -406 -8 -33 -16 -71 -19 -85 -3 -14 -7 -34 -10 -45 -7 -30 -37 -166 -42
-194 -3 -13 -23 -103 -45 -200 -22 -97 -42 -189 -45 -204 -2 -16 -14 -68 -25
-115 -20 -88 -86 -386 -95 -432 -22 -113 -47 -201 -54 -189 -4 8 -22 61 -38
119 -17 58 -58 193 -92 300 -33 107 -63 204 -65 214 -3 11 -16 56 -30 100 -39
124 -51 163 -84 271 -45 150 -226 742 -272 889 l-41 129 -27 -79 c-44 -125
-95 -269 -141 -394 -23 -63 -43 -119 -44 -125 -2 -5 -6 -17 -9 -25 -4 -8 -56
-154 -116 -325 -60 -170 -128 -362 -151 -425 -23 -63 -45 -126 -50 -140 -4
-14 -31 -90 -60 -170 -29 -80 -70 -194 -91 -254 l-39 -110 2 -6690 3 -6691
2685 0 2685 0 0 6690 0 6690 -68 220 c-37 121 -69 227 -71 235 -2 8 -21 69
-41 135 -20 66 -45 147 -55 180 -10 33 -37 121 -60 195 -23 74 -43 142 -45
150 -2 8 -45 148 -95 310 -109 355 -136 443 -164 538 -11 39 -24 72 -27 72 -4
0 -57 -157 -64 -190 0 -3 -22 -70 -47 -150 -26 -80 -63 -199 -83 -265 -21 -66
-52 -167 -71 -225 -18 -58 -55 -177 -83 -265 -27 -88 -87 -277 -132 -420 -44
-143 -89 -287 -99 -320 -46 -151 -52 -171 -60 -178 -6 -7 -21 55 -22 93 0 3
-4 14 -8 26 -5 11 -11 36 -14 55 -4 28 -35 180 -52 254 -2 11 -6 31 -9 45 -10
52 -18 92 -95 458 -22 107 -42 203 -44 215 -16 79 -28 134 -46 222 -12 55 -24
109 -26 120 -2 11 -15 74 -28 140 -14 66 -28 135 -31 154 -3 19 -8 38 -10 42
-3 4 -7 22 -9 40 -3 19 -21 108 -40 199 -35 168 -65 309 -72 345 -7 38 -12 60
-34 165 -12 58 -24 114 -26 125 -3 16 -43 209 -60 290 -4 17 -24 115 -40 195
-3 14 -18 86 -34 160 -24 112 -69 333 -86 415 -7 38 -114 552 -118 570 -2 6
-6 28 -11 50 -9 48 -13 68 -20 98 -3 12 -7 33 -10 47 -2 14 -14 70 -25 125
-12 55 -24 114 -26 130 -3 17 -9 46 -14 65 -8 33 -54 248 -66 315 -3 17 -7 35
-8 40 -2 6 -6 28 -11 50 -4 22 -9 47 -11 55 -1 8 -19 92 -39 185 -19 94 -37
179 -40 190 -2 11 -11 56 -20 100 -9 44 -18 89 -21 100 -2 11 -6 29 -8 40 -34
168 -69 337 -76 365 -5 19 -12 51 -15 70 -8 46 -11 47 -19 8z m99 -8867 c552
-124 826 -749 541 -1235 -218 -372 -700 -515 -1086 -321 -220 110 -376 307
-436 550 -30 117 -27 301 5 412 90 312 339 539 656 598 79 15 245 12 320 -4z
m-1080 -4983 c153 -31 256 -150 287 -328 10 -59 13 -339 12 -1303 0 -675 -4
-1230 -8 -1235 -4 -4 -182 -7 -396 -7 l-388 0 0 1251 c0 960 3 1265 12 1310
15 70 54 156 93 203 79 95 238 140 388 109z m2215 -7 c104 -29 181 -94 230
-196 62 -126 60 -72 60 -1427 0 -987 -2 -1238 -12 -1239 -7 -1 -193 -2 -413
-3 l-400 -1 -5 1195 c-5 1081 -3 1258 14 1340 27 137 103 252 199 301 87 45
228 58 327 30z"/>
<path d="M8779 19863 c0 -16 -1 -214 -2 -441 -2 -359 0 -413 13 -416 8 -2 31
-7 50 -10 19 -3 45 -8 58 -10 12 -3 86 -17 165 -31 78 -15 144 -28 147 -30 3
-2 28 -6 55 -9 28 -4 68 -11 90 -16 22 -5 56 -12 75 -15 38 -6 40 -7 175 -33
l90 -17 0 -3725 0 -3724 -135 -23 c-74 -12 -151 -25 -170 -28 -20 -3 -45 -7
-57 -9 -11 -3 -38 -7 -59 -10 -22 -4 -64 -11 -94 -16 -30 -5 -72 -12 -94 -16
-21 -3 -47 -7 -56 -9 -10 -2 -40 -7 -67 -11 -26 -3 -55 -8 -65 -10 -9 -1 -38
-6 -65 -10 -26 -5 -51 -9 -55 -10 -5 -1 -12 -2 -17 -3 -4 0 -9 -190 -9 -421
l-1 -420 2047 2 2047 3 2 417 1 417 -26 5 c-15 3 -45 8 -67 11 -72 10 -110 16
-135 21 -14 2 -54 9 -90 14 -36 5 -123 19 -195 30 -71 11 -188 29 -260 40 -71
11 -139 22 -150 24 -11 2 -42 7 -70 10 l-50 7 0 1657 0 1657 1793 3 1792 2 0
-32 c3 -214 0 -3281 -2 -3284 -2 -2 -21 -6 -42 -10 -21 -3 -46 -7 -55 -9 -9
-1 -36 -6 -61 -10 -25 -4 -54 -9 -65 -12 -11 -2 -36 -6 -55 -9 -19 -2 -46 -6
-60 -9 -45 -9 -67 -13 -106 -19 -40 -6 -115 -19 -124 -21 -3 -1 -27 -5 -55
-10 -27 -4 -57 -9 -66 -10 -8 -2 -62 -11 -120 -20 -57 -9 -113 -20 -124 -24
-20 -8 -20 -17 -18 -412 1 -222 2 -410 2 -416 1 -10 409 -13 2006 -13 l2005 0
0 420 c0 231 -3 420 -7 421 -5 0 -15 2 -23 4 -20 4 -81 14 -127 20 -21 3 -60
10 -88 16 -27 5 -63 11 -80 13 -26 4 -74 11 -200 32 -16 2 -55 9 -85 14 -30 5
-71 12 -90 15 -19 3 -46 7 -60 10 -14 3 -41 7 -60 10 -48 7 -92 16 -111 21
-15 4 -16 318 -15 3726 l1 3722 35 7 c19 3 89 16 155 28 66 12 154 29 195 37
41 8 89 16 105 19 17 2 44 7 60 10 17 3 104 19 195 36 91 16 173 32 183 35 16
5 17 35 17 445 l0 439 -2013 0 -2012 0 0 -440 c0 -493 -8 -442 68 -454 15 -3
76 -14 135 -25 59 -11 118 -22 132 -25 27 -4 192 -35 225 -42 11 -2 34 -7 50
-9 25 -5 192 -36 270 -51 11 -2 35 -7 53 -10 31 -6 32 -8 32 -58 4 -453 0
-2999 -4 -3004 -4 -4 -3490 -7 -3566 -3 -13 1 -15 178 -15 1531 0 1352 2 1531
15 1535 8 2 31 7 50 10 19 3 46 7 60 10 14 3 40 7 58 10 17 3 47 7 65 10 17 3
43 7 57 10 14 3 40 7 58 10 42 7 84 14 125 21 17 3 43 7 57 9 14 2 52 8 85 14
108 19 118 21 255 43 74 12 140 25 147 30 8 7 11 126 11 443 l0 435 -2034 0
-2034 0 -1 -27z"/>
<path d="M13547 9514 c-1 -1 -86 -5 -189 -9 -102 -3 -201 -8 -220 -10 -18 -3
-67 -7 -108 -10 -41 -3 -91 -7 -110 -10 -19 -3 -55 -7 -80 -10 -25 -3 -63 -8
-85 -11 -22 -3 -51 -7 -65 -9 -97 -12 -244 -39 -490 -91 -103 -21 -451 -123
-518 -151 -20 -8 -43 -16 -51 -18 -50 -10 -318 -123 -491 -208 -196 -96 -508
-282 -610 -364 -8 -6 -51 -38 -95 -71 -222 -166 -474 -409 -655 -631 -19 -23
-43 -53 -54 -64 -84 -99 -272 -380 -375 -565 -273 -485 -477 -1127 -547 -1722
-2 -19 -6 -53 -8 -75 -3 -22 -8 -67 -11 -100 -4 -33 -8 -76 -10 -95 -25 -239
-25 -967 -1 -1120 3 -14 7 -54 11 -90 7 -81 11 -110 30 -240 2 -14 6 -45 10
-70 3 -25 13 -76 20 -115 8 -38 16 -83 19 -100 3 -16 8 -43 11 -58 28 -147
132 -500 203 -687 121 -323 304 -681 470 -919 25 -36 55 -79 66 -96 12 -16 23
-32 26 -35 3 -3 24 -30 46 -60 23 -30 51 -66 64 -80 12 -14 34 -40 48 -59 90
-113 296 -319 457 -456 571 -485 1284 -812 2050 -939 69 -12 163 -26 210 -31
28 -4 61 -8 74 -10 13 -3 61 -7 105 -10 45 -4 91 -8 104 -10 51 -8 339 -19
512 -18 174 0 513 11 549 18 9 1 61 6 115 10 55 4 109 8 120 10 12 2 48 6 81
10 70 7 109 13 185 25 30 5 73 11 95 15 22 3 63 10 90 15 28 5 64 12 80 15 29
4 209 42 410 84 55 12 118 26 140 32 22 6 47 13 56 14 61 12 438 107 604 152
110 30 207 56 215 58 8 2 62 17 120 33 349 98 516 135 674 147 38 4 72 8 75
10 3 2 6 742 5 1644 0 903 2 1644 5 1646 4 2 74 15 156 30 294 52 388 70 438
81 4 1 16 2 26 3 19 1 20 12 18 467 l-2 467 -1925 -1 c-1059 0 -1933 -1 -1942
-1 -17 -1 -18 -30 -18 -466 l0 -465 23 -1 c12 0 29 -2 37 -4 8 -1 42 -5 75 -8
33 -3 92 -10 130 -16 39 -5 97 -13 130 -16 33 -3 71 -8 85 -9 14 -2 54 -7 90
-11 36 -3 72 -8 80 -10 8 -2 44 -6 80 -9 36 -3 75 -8 87 -10 12 -3 53 -8 90
-11 37 -4 70 -9 73 -10 3 -2 41 -7 83 -10 43 -4 90 -10 105 -14 l27 -7 0
-1298 0 -1299 -55 -50 c-181 -165 -498 -288 -888 -343 -150 -21 -266 -28 -447
-28 -251 0 -416 24 -628 90 -182 57 -395 170 -547 292 -85 67 -286 277 -361
377 -254 337 -430 724 -560 1230 -23 88 -43 169 -45 180 -2 11 -10 52 -18 90
-16 74 -20 93 -36 190 -9 57 -13 74 -25 135 -2 14 -7 48 -11 75 -3 28 -7 61
-9 75 -2 14 -7 45 -10 70 -3 25 -7 63 -10 85 -8 58 -14 121 -20 195 -3 36 -7
85 -10 110 -5 59 -15 218 -21 350 -5 124 -5 725 1 825 5 96 16 282 20 325 6
69 15 166 20 200 3 19 7 54 10 78 16 129 34 252 50 332 3 14 8 39 10 55 27
161 137 567 192 705 4 8 7 17 8 20 5 16 23 58 68 165 211 498 517 878 901
1119 209 131 455 226 706 272 177 33 247 38 485 38 230 -1 347 -7 505 -30 19
-3 49 -7 67 -10 89 -12 266 -62 377 -107 122 -50 252 -139 265 -182 6 -16 91
-356 190 -754 100 -398 184 -727 187 -730 10 -11 1444 -7 1445 4 0 5 2 21 4
35 1 14 6 77 9 140 4 63 9 133 11 155 3 22 7 87 10 145 3 58 7 130 10 160 2
30 6 100 9 155 4 55 8 127 11 160 6 74 13 178 20 310 3 55 7 123 10 150 2 28
7 95 10 150 3 55 8 127 10 160 9 127 16 223 20 290 2 39 6 113 10 166 l6 95
-73 17 c-40 10 -82 19 -93 21 -177 37 -378 76 -405 81 -19 3 -46 8 -60 10 -14
3 -36 8 -50 10 -43 9 -193 35 -230 41 -19 3 -42 7 -50 9 -8 2 -103 18 -210 35
-238 38 -227 36 -325 50 -44 6 -93 14 -110 16 -16 3 -48 7 -70 9 -22 2 -57 7
-77 10 -82 11 -105 14 -163 20 -33 3 -76 8 -95 10 -33 4 -114 11 -220 20 -25
2 -90 7 -145 11 -55 3 -118 8 -140 9 -124 9 -762 24 -768 19z"/>
</g>
</svg>
